<?xml version="1.0" encoding="UTF-8" standalone="no"?>
<svg
   style="height: 512px; width: 512px;"
   viewBox="0 0 512 512"
   version="1.1"
   id="svg2"
   sodipodi:docname="cross-mark.svg"
   inkscape:version="1.4 (e7c3feb, 2024-10-09)"
   xmlns:inkscape="http://www.inkscape.org/namespaces/inkscape"
   xmlns:sodipodi="http://sodipodi.sourceforge.net/DTD/sodipodi-0.dtd"
   xmlns="http://www.w3.org/2000/svg"
   xmlns:svg="http://www.w3.org/2000/svg">
  <defs
     id="defs2">
    <filter
       style="color-interpolation-filters:sRGB;"
       inkscape:label="Drop Shadow"
       id="filter10"
       x="-0.015056777"
       y="-0.015120936"
       width="1.0426609"
       height="1.0428427">
      <feFlood
         result="flood"
         in="SourceGraphic"
         flood-opacity="0.317647"
         flood-color="rgb(71,35,35)"
         id="feFlood9" />
      <feGaussianBlur
         result="blur"
         in="SourceGraphic"
         stdDeviation="3.000000"
         id="feGaussianBlur9" />
      <feOffset
         result="offset"
         in="blur"
         dx="6.000000"
         dy="6.000000"
         id="feOffset9" />
      <feComposite
         result="comp1"
         operator="in"
         in="flood"
         in2="offset"
         id="feComposite9" />
      <feComposite
         result="comp2"
         operator="over"
         in="SourceGraphic"
         in2="comp1"
         id="feComposite10" />
    </filter>
  </defs>
  <sodipodi:namedview
     id="namedview2"
     pagecolor="#505050"
     bordercolor="#eeeeee"
     borderopacity="1"
     inkscape:showpageshadow="0"
     inkscape:pageopacity="0"
     inkscape:pagecheckerboard="0"
     inkscape:deskcolor="#505050"
     inkscape:zoom="1.5625"
     inkscape:cx="255.68"
     inkscape:cy="256"
     inkscape:window-width="1920"
     inkscape:window-height="1011"
     inkscape:window-x="0"
     inkscape:window-y="0"
     inkscape:window-maximized="1"
     inkscape:current-layer="svg2" />
  <g
     class=""
     style="fill:#fb2f51;fill-opacity:1;filter:url(#filter10)"
     transform="translate(0,0)"
     id="g2">
    <path
       d="M105.367 18.328c23.14 15.444 46.098 31.27 68.55 47.572-45.055-20.895-94.51-35.918-149.37-44.246 46.697 26.72 91.596 55.58 135.705 85.524-37.203-18.033-77.48-32.22-121.602-41.37 58.218 34.322 109.368 72.465 154.71 114.206C136.02 227.227 86.295 284.717 45.79 354.18c27.11-24.29 54.91-47.545 82.868-70.68C81.942 339.36 45.05 405.01 20.2 482.135c20.36-24.62 40.988-48.203 61.905-70.817 44.7-67.485 89.567-147.11 148.856-170.418-29.61 30.708-63.36 75.164-98.25 118.145 40.99-40.437 83.09-77.46 126.415-111.512 61.598 70.49 110.757 149.38 152.145 235.873-6.738-44.794-16.796-87.384-30.03-127.666l46.444 65.53s-26.037-72.69-43.66-101.987c40.76 55.91 78.208 114.428 112.328 175.205-18.674-89.454-50.512-169.772-98.893-238.224 34.906 34.69 68.637 71.1 100.93 109.045C465.048 288.827 423.58 221.82 372.214 167c40.224-25.887 81.48-49.73 123.863-71.783-32.025 5.56-62.49 12.92-92.006 21.934 21.836-16.173 44.41-32.124 67.024-47.523-37.987 11.91-74.633 25.775-109.067 41.433 42.668-27.673 86.32-53.668 131.004-78.602h-.003c-67.47 18.055-130.83 42.19-188.998 73.548-56.294-41.79-122.01-71.787-198.663-87.68z"
       fill="#fff"
       fill-opacity="1"
       style="fill:#fb2f51;fill-opacity:1"
       data-darkreader-inline-fill=""
       id="path2" />
  </g>
</svg>
